<?xml version="1.0" standalone="no"?>
<!DOCTYPE svg PUBLIC "-//W3C//DTD SVG 20010904//EN"
 "http://www.w3.org/TR/2001/REC-SVG-20010904/DTD/svg10.dtd">
<svg version="1.0" xmlns="http://www.w3.org/2000/svg"
 width="1767.000000pt" height="374.000000pt" viewBox="0 0 1767.000000 374.000000"
 preserveAspectRatio="xMidYMid meet">
<metadata>
Created by potrace 1.16, written by Peter Selinger 2001-2019
</metadata>
<g transform="translate(0.000000,374.000000) scale(0.100000,-0.100000)"
fill="#000000" stroke="none">
<path d="M643 3733 l647 -3 0 -190 0 -190 -647 -3 -648 -2 653 -3 652 -2 0
200 0 200 -652 -2 -653 -3 648 -2z"/>
<path d="M2542 3543 l3 -198 678 -3 677 -2 -2 197 -3 198 -678 3 -677 2 2
-197z m1342 171 c3 -9 6 -94 6 -190 l0 -174 -670 0 -670 0 0 190 0 190 664 0
c596 0 664 -2 670 -16z"/>
<path d="M4274 3727 c-2 -7 -3 -96 -2 -197 l3 -185 677 -3 678 -2 6 24 c8 34
1 348 -9 364 -12 18 -1345 18 -1353 -1z m1340 -13 c3 -9 6 -94 6 -190 l0 -174
-667 2 -668 3 -3 188 -2 187 664 0 c596 0 664 -2 670 -16z"/>
<path d="M6866 3709 c-8 -40 -8 -317 0 -346 l6 -23 664 0 664 0 0 200 0 200
-664 0 -663 0 -7 -31z m1324 -169 l0 -190 -655 0 -655 0 0 190 0 190 655 0
655 0 0 -190z"/>
<path d="M8574 3727 c-2 -7 -3 -96 -2 -197 l3 -185 677 -3 678 -2 5 22 c3 13
4 102 3 198 l-3 175 -678 3 c-546 2 -679 0 -683 -11z m1354 -184 l-3 -188
-670 0 -670 0 -3 165 c-1 91 0 175 3 188 l5 22 670 0 670 0 -2 -187z"/>
<path d="M12456 3724 c-9 -23 -7 -357 2 -372 7 -10 150 -12 683 -10 l674 3 0
195 0 195 -676 3 c-611 2 -677 1 -683 -14z m1352 -181 l-3 -188 -670 0 -670 0
-3 155 c-2 85 0 170 3 188 l6 32 670 0 669 0 -2 -187z"/>
<path d="M14632 3723 c-4 -10 -7 -92 -7 -183 0 -91 3 -173 7 -182 7 -17 88
-18 1525 -16 l1518 3 -1515 5 -1515 5 -3 187 -2 188 1517 3 1518 2 -1518 3
c-1437 2 -1518 1 -1525 -15z"/>
<path d="M643 3263 l647 -3 -2 -373 -3 -372 -645 -5 -645 -5 650 0 650 0 0
380 0 380 -650 0 -650 0 648 -2z"/>
<path d="M2123 3258 c-4 -7 -10 -88 -11 -180 l-4 -168 -216 -2 -217 -3 -3
-191 c-2 -153 0 -193 11 -203 11 -8 243 -10 888 -9 l874 3 3 177 2 178 223 2
222 3 0 200 0 200 -882 3 c-699 2 -883 0 -890 -10z m1762 -193 l0 -190 -220
-5 -220 -5 -5 -175 -5 -175 -875 0 -875 0 0 190 0 190 220 5 220 5 3 165 c1
91 4 171 7 178 3 10 184 12 877 10 l873 -3 0 -190z"/>
<path d="M4277 3263 c-4 -3 -7 -174 -7 -379 0 -330 2 -373 16 -378 9 -3 312
-6 674 -6 642 0 660 1 670 19 14 27 14 705 0 732 -10 18 -29 19 -679 19 -367
0 -671 -3 -674 -7z m1341 -375 l-3 -373 -665 0 -665 0 -3 360 c-1 198 0 366 3
372 3 10 145 13 670 13 l665 0 -2 -372z"/>
<path d="M6427 3263 c-4 -3 -7 -84 -7 -180 l0 -173 -205 0 c-186 0 -206 -2
-213 -17 -4 -10 -7 -98 -7 -196 0 -147 3 -179 15 -187 9 -6 355 -10 887 -10
852 0 873 0 883 19 6 11 10 89 10 180 l0 161 203 2 202 3 0 200 0 200 -881 3
c-484 1 -884 -1 -887 -5z m1758 -198 l0 -190 -202 -3 -203 -2 0 -169 c0 -130
-3 -171 -14 -180 -10 -8 -248 -10 -882 -9 l-869 3 0 190 0 190 205 5 205 5 3
165 c1 91 4 171 7 178 3 10 184 12 877 10 l873 -3 0 -190z"/>
<path d="M8577 3263 c-4 -3 -7 -172 -7 -373 0 -297 3 -370 14 -379 10 -8 308
-10 1112 -9 l1099 3 0 200 0 200 -222 3 -223 2 -2 178 -3 177 -881 3 c-484 1
-884 -1 -887 -5z m1765 -180 l3 -178 223 -3 222 -2 -2 -193 -3 -192 -1100 0
-1100 0 -3 360 c-1 198 0 366 3 372 3 10 187 13 879 13 l876 0 2 -177z"/>
<path d="M12045 3258 c-3 -7 -6 -87 -7 -178 l-3 -165 -203 -3 -203 -2 -9 -26
c-15 -38 -13 -357 2 -372 19 -19 2171 -17 2187 2 8 9 11 118 9 382 l-3 369
-883 3 c-701 2 -884 0 -887 -10z m1760 -373 l0 -370 -1080 -3 c-1006 -2 -1081
-1 -1092 15 -14 18 -19 282 -7 342 l6 31 207 2 206 3 3 178 2 177 878 -2 877
-3 0 -370z"/>
<path d="M14195 3257 c-3 -6 -4 -179 -3 -382 l3 -370 655 -3 c360 -1 665 0
678 3 22 5 22 7 22 180 l0 175 1063 3 1062 2 -1065 0 -1065 0 -5 -175 -5 -175
-665 0 -665 0 -3 372 -2 373 1737 3 1738 2 -1738 3 c-1386 1 -1739 -1 -1742
-11z"/>
<path d="M1510 2420 l1515 -5 0 -365 0 -365 -1515 -5 -1515 -5 1520 0 1520 0
0 375 0 375 -1520 0 -1520 0 1515 -5z"/>
<path d="M4275 2417 c-3 -6 -4 -176 -3 -377 l3 -365 1530 0 1530 0 0 375 0
375 -1528 3 c-1220 2 -1529 0 -1532 -11z m3050 -367 l0 -365 -1520 0 -1520 0
-3 355 c-1 195 0 361 3 367 3 11 310 13 1522 11 l1518 -3 0 -365z"/>
<path d="M8575 2417 c-3 -6 -4 -176 -3 -377 l3 -365 674 -3 c533 -2 676 0 683
10 4 7 8 88 8 181 l0 167 180 0 180 0 0 -164 c0 -90 3 -171 6 -180 6 -14 93
-16 889 -16 796 0 883 2 889 16 3 9 6 90 6 180 l0 164 180 0 180 0 0 -167 c0
-93 4 -174 8 -181 7 -10 150 -12 683 -10 l674 3 0 375 0 375 -2618 3 c-2094 2
-2619 0 -2622 -11z m5230 -367 l0 -365 -670 0 -670 0 -5 175 -5 175 -185 0
-185 0 -5 -175 -5 -175 -880 0 -880 0 -5 175 -5 175 -185 0 -185 0 -5 -175 -5
-175 -670 0 -670 0 -3 355 c-1 195 0 361 3 367 3 11 525 13 2612 11 l2608 -3
0 -365z"/>
<path d="M14190 2050 l0 -380 1110 0 1110 0 6 23 c11 47 0 355 -14 369 -10 10
-105 14 -432 16 l-420 3 -2 172 -3 172 -677 3 -678 2 0 -380z m1350 195 l0
-174 421 -3 c405 -3 421 -4 435 -23 12 -15 14 -54 12 -190 l-3 -170 -1102 -3
-1103 -2 0 370 0 370 670 0 670 0 0 -175z"/>
<path d="M1510 1590 l1515 -5 3 -177 2 -178 205 0 205 0 -2 -192 -3 -193 -875
0 -875 0 -3 178 -2 177 -193 -2 -192 -3 -5 -175 -5 -175 -645 -5 -645 -5 650
0 650 0 3 178 2 177 185 0 185 0 0 -169 c0 -130 3 -171 14 -180 10 -8 250 -10
887 -9 l874 3 3 203 2 202 -205 0 -205 0 0 168 c0 117 -4 172 -12 180 -9 9
-358 11 -1522 10 l-1511 -3 1515 -5z"/>
<path d="M4275 1587 c-3 -6 -4 -179 -3 -382 l3 -370 670 -3 c621 -2 671 -1
683 15 8 12 12 65 12 180 l0 163 174 0 174 0 4 -167 c1 -93 7 -174 11 -180 12
-18 1757 -19 1775 -1 13 13 18 351 6 382 -5 14 -35 16 -225 16 l-219 0 0 168
c0 117 -4 172 -12 180 -18 18 -3047 17 -3053 -1z m3053 -179 l2 -178 223 -2
222 -3 3 -170 c1 -93 0 -180 -3 -193 l-5 -22 -878 2 -877 3 -5 175 -5 175
-190 0 -190 0 -5 -175 -5 -175 -665 0 -665 0 -3 360 c-1 198 0 366 3 372 3 11
310 13 1522 11 l1518 -3 3 -177z"/>
<path d="M8575 1587 c-3 -6 -4 -179 -3 -382 l3 -370 669 -3 c486 -1 673 1 682
9 19 16 21 728 2 747 -18 18 -1347 17 -1353 -1z m1349 -13 c9 -24 7 -707 -2
-722 -7 -10 -148 -12 -673 -10 l-664 3 -3 360 c-1 198 0 366 3 372 3 10 145
13 669 13 596 0 664 -2 670 -16z"/>
<path d="M10752 1583 c-9 -23 -9 -353 0 -376 7 -16 36 -17 460 -15 l453 3 3
189 c2 130 -1 193 -9 202 -9 12 -90 14 -456 14 -413 0 -444 -1 -451 -17z m903
-188 l0 -190 -445 0 -445 0 -3 180 c-1 98 0 185 2 192 4 11 93 13 448 11 l443
-3 0 -190z"/>
<path d="M12462 1588 c-19 -19 -17 -731 2 -747 9 -8 196 -10 682 -9 l669 3 0
380 0 380 -670 3 c-514 2 -674 -1 -683 -10z m1343 -373 l0 -370 -664 -3 c-525
-2 -666 0 -673 10 -9 15 -11 698 -2 722 6 15 71 16 673 14 l666 -3 0 -370z"/>
<path d="M14195 1588 c-3 -7 -4 -180 -3 -383 l3 -370 675 0 675 0 0 380 0 380
-673 3 c-534 2 -674 0 -677 -10z m1340 -373 l0 -370 -665 0 -665 0 -3 360 c-1
198 0 366 3 373 3 10 141 12 667 10 l663 -3 0 -370z"/>
<path d="M642 753 l648 -3 3 -373 2 -372 3 378 2 377 -652 -2 -653 -3 647 -2z"/>
<path d="M2122 743 c-4 -10 -7 -98 -7 -196 0 -147 3 -179 15 -187 8 -5 104
-10 212 -10 l198 0 3 -172 3 -173 2 177 2 178 -207 2 -208 3 0 190 0 190 877
3 878 2 3 -372 2 -373 3 378 2 377 -885 0 c-834 0 -886 -1 -893 -17z"/>
<path d="M4277 753 c-4 -3 -6 -173 -5 -377 l3 -371 5 370 5 370 668 3 667 2 0
-370 c0 -240 4 -370 10 -370 11 0 15 706 4 734 -6 14 -75 16 -678 16 -370 0
-676 -3 -679 -7z"/>
<path d="M6427 753 c-13 -12 -8 -378 5 -391 9 -9 72 -12 220 -12 l208 0 0
-157 c0 -87 5 -165 10 -173 7 -10 9 43 7 160 l-2 175 -220 5 c-121 4 -221 7
-223 8 -1 1 -1 86 0 190 l3 187 877 3 878 2 3 -372 2 -373 3 378 2 377 -883 0
c-486 0 -887 -3 -890 -7z"/>
<path d="M8577 753 c-4 -3 -6 -173 -5 -377 l3 -371 5 370 5 370 670 0 670 0 5
-370 5 -370 3 362 c1 199 -1 368 -4 377 -6 14 -75 16 -678 16 -370 0 -676 -3
-679 -7z"/>
<path d="M12456 744 c-3 -8 -5 -178 -4 -377 l3 -362 5 370 5 370 670 0 670 0
5 -370 5 -370 0 375 0 375 -676 3 c-611 2 -677 1 -683 -14z"/>
<path d="M14190 561 c0 -172 2 -200 16 -205 9 -3 105 -6 215 -6 l199 0 1 -147
c1 -82 5 -159 9 -173 5 -15 8 48 9 152 l1 178 -217 2 -218 3 -3 192 -2 193
1737 3 1738 2 -1742 3 -1743 2 0 -199z"/>
</g>
</svg>
