<?xml version="1.0" standalone="no"?>
<!DOCTYPE svg PUBLIC "-//W3C//DTD SVG 20010904//EN"
 "http://www.w3.org/TR/2001/REC-SVG-20010904/DTD/svg10.dtd">
<svg version="1.0" xmlns="http://www.w3.org/2000/svg"
 width="594.000000pt" height="125.000000pt" viewBox="0 0 594.000000 125.000000"
 preserveAspectRatio="xMidYMid meet">
<metadata>
Created by potrace 1.16, written by Peter Selinger 2001-2019
</metadata>
<g transform="translate(0.000000,125.000000) scale(0.100000,-0.100000)"
fill="#ffffff" stroke="none">
<path d="M450 1185 l0 -65 -225 0 c-193 0 -225 -2 -225 -15 0 -13 32 -15 225
-15 l225 0 0 -125 0 -125 -225 0 c-193 0 -225 -2 -225 -15 0 -13 64 -15 515
-15 l515 0 0 -125 0 -125 -515 0 c-451 0 -515 -2 -515 -15 0 -13 64 -15 515
-15 l515 0 0 -60 0 -60 70 0 70 0 0 -65 0 -65 -295 0 -295 0 0 60 0 60 -65 0
-65 0 0 -60 0 -60 -225 0 c-193 0 -225 -2 -225 -15 0 -13 32 -15 225 -15 l225
0 0 -125 0 -125 210 0 210 0 0 60 0 59 -72 3 -73 3 0 60 0 60 298 3 297 2 0
-125 0 -125 65 0 65 0 0 125 0 125 225 0 225 0 0 -125 0 -125 205 0 205 0 0
60 0 60 -70 0 -70 0 0 65 0 65 295 0 295 0 0 -125 0 -125 65 0 65 0 0 125 0
125 225 0 225 0 0 -125 0 -125 425 0 425 0 0 125 0 125 225 0 225 0 0 -125 0
-125 135 0 135 0 0 60 0 60 -70 0 -70 0 0 65 0 65 585 0 585 0 0 355 0 355
-360 0 -360 0 0 -60 0 -60 -225 0 -225 0 0 125 0 125 585 0 c513 0 585 2 585
15 0 13 -64 15 -516 15 l-516 0 4 65 3 65 -137 0 -138 0 0 -65 0 -65 -225 0
-225 0 0 65 0 65 -425 0 -425 0 0 -65 0 -65 -225 0 -225 0 0 65 0 65 -65 0
-65 0 0 -65 0 -65 -226 0 -226 0 4 65 3 65 -207 0 -208 0 0 -65 0 -65 -225 0
-225 0 0 65 0 65 -65 0 -65 0 0 -65 0 -65 -225 0 -225 0 0 65 0 65 -210 0
-210 0 0 -65z m870 -160 l0 -65 -75 0 -75 0 0 -60 0 -60 -295 0 -295 0 0 65 0
65 70 0 70 0 0 53 c0 30 3 57 7 60 3 4 138 7 300 7 l293 0 0 -65z m580 -60 l0
-125 -225 0 -225 0 0 125 0 125 225 0 225 0 0 -125z m860 60 l0 -65 -70 0 -70
0 0 -60 0 -60 -300 0 -301 0 3 63 3 62 73 3 72 3 0 59 0 60 295 0 295 0 0 -65z
m720 5 l0 -60 75 0 75 0 0 -65 0 -65 -370 0 -370 0 0 125 0 125 295 0 295 0 0
-60z m1160 -65 l0 -125 -370 0 -371 0 3 63 3 62 73 3 72 3 0 59 0 60 295 0
295 0 0 -125z m-2170 -280 l0 -125 -510 0 -510 0 0 125 0 125 510 0 510 0 0
-125z m2170 0 l0 -125 -225 0 -225 0 0 60 0 60 -65 0 -65 0 0 -60 0 -60 -295
0 -295 0 0 60 0 60 -65 0 -65 0 0 -60 0 -60 -225 0 -225 0 0 125 0 125 875 0
875 0 0 -125z m580 65 l0 -60 145 0 145 0 0 -65 0 -65 -370 0 -370 0 0 125 0
125 225 0 225 0 0 -60z m-2750 -280 l0 -60 75 0 75 0 0 -65 0 -65 -300 0 -300
0 0 60 0 60 -60 0 -60 0 0 -60 0 -60 -225 0 -225 0 0 125 0 125 510 0 510 0 0
-60z m870 -65 l0 -125 -225 0 -225 0 0 125 0 125 225 0 225 0 0 -125z m580 60
l0 -66 -152 3 -153 3 -3 49 c-5 79 -11 76 158 76 l150 0 0 -65z m720 -60 l0
-125 -225 0 -225 0 0 125 0 125 225 0 225 0 0 -125z m580 0 l0 -125 -225 0
-225 0 0 125 0 125 225 0 225 0 0 -125z"/>
</g>
</svg>
